<svg viewBox="0 0 400 400" xmlns="http://www.w3.org/2000/svg">
  <rect width="100%" height="100%" fill="#F5F5DC" rx="30" ry="30"/>
  
  <!-- Cute Soy Milk Glass -->
  <path d="M160 80 L240 80 L230 250 L170 250 Z" fill="white" stroke="#4A5568" stroke-width="4"/>
  
  <!-- Almond Decoration -->
  <ellipse cx="200" cy="140" rx="30" ry="15" fill="#EADDCA" stroke="#4A5568" stroke-width="2" transform="rotate(-30 200 140)"/>
  <ellipse cx="200" cy="180" rx="30" ry="15" fill="#EADDCA" stroke="#4A5568" stroke-width="2" transform="rotate(30 200 180)"/>
  <ellipse cx="200" cy="220" rx="30" ry="15" fill="#EADDCA" stroke="#4A5568" stroke-width="2" transform="rotate(-30 200 220)"/>
  
  <!-- Almond -->
  <path d="M180 110 Q 200 90 220 110 Q 230 130 200 150 Q 170 130 180 110 Z" fill="#EADDCA" stroke="#4A5568" stroke-width="2"/>
  
  <!-- Cute Face -->
  <circle cx="190" cy="120" r="5" fill="#4A5568"/>
  <circle cx="210" cy="120" r="5" fill="#4A5568"/>
  <path d="M190 135 Q 200 140 210 135" stroke="#4A5568" stroke-width="2" fill="none"/>
  
  <!-- Text -->
  <text x="200" y="300" font-family="Arial" font-size="16" fill="#4A5568" text-anchor="middle" font-weight="bold">Almond Soy Milk</text>
  <text x="200" y="325" font-family="Arial" font-size="14" fill="#4A5568" text-anchor="middle">นมถั่วเหลืองรสอัลมอนด์</text>
</svg>