<svg viewBox="0 0 400 400" xmlns="http://www.w3.org/2000/svg">
  <rect width="100%" height="100%" fill="#E2E8F0" rx="30" ry="30"/>
  
  <!-- Cute Soy Milk Glass -->
  <path d="M160 80 L240 80 L230 250 L170 250 Z" fill="white" stroke="#4A5568" stroke-width="4"/>
  
  <!-- Black Sesame Swirl -->
  <path d="M170 120 C200 100 230 140 200 160 C170 180 230 200 200 220 C170 240 230 260 200 280" stroke="#2D3748" stroke-width="8" fill="none" stroke-linecap="round"/>
  
  <!-- Black Sesame Seeds -->
  <circle cx="180" cy="130" r="3" fill="#2D3748"/>
  <circle cx="210" cy="140" r="3" fill="#2D3748"/>
  <circle cx="190" cy="170" r="3" fill="#2D3748"/>
  <circle cx="220" cy="180" r="3" fill="#2D3748"/>
  <circle cx="175" cy="200" r="3" fill="#2D3748"/>
  <circle cx="205" cy="210" r="3" fill="#2D3748"/>
  <circle cx="185" cy="230" r="3" fill="#2D3748"/>
  
  <!-- Cute Face -->
  <circle cx="185" cy="150" r="8" fill="#4A5568"/>
  <circle cx="215" cy="150" r="8" fill="#4A5568"/>
  <path d="M190 180 Q 200 190 210 180" stroke="#4A5568" stroke-width="3" fill="none"/>
  
  <!-- Text -->
  <text x="200" y="300" font-family="Arial" font-size="16" fill="#4A5568" text-anchor="middle" font-weight="bold">Black Sesame Soy Milk</text>
  <text x="200" y="325" font-family="Arial" font-size="14" fill="#4A5568" text-anchor="middle">นมถั่วเหลืองรสงาดำ</text>
</svg>