<svg viewBox="0 0 400 400" xmlns="http://www.w3.org/2000/svg">
  <rect width="100%" height="100%" fill="#FFECB3" rx="30" ry="30"/>
  
  <!-- Cute Soy Milk Glass -->
  <path d="M160 80 L240 80 L230 250 L170 250 Z" fill="#FFF9C4" stroke="#4A5568" stroke-width="4"/>
  
  <!-- Banana -->
  <path d="M150 120 C130 140 130 180 150 200 C170 220 230 220 250 200 C270 180 270 140 250 120 C230 100 170 100 150 120 Z" fill="#FFEB3B" stroke="#4A5568" stroke-width="2"/>
  
  <!-- Banana Slices -->
  <ellipse cx="180" cy="140" rx="15" ry="10" fill="white" stroke="#4A5568" stroke-width="1" transform="rotate(30 180 140)"/>
  <ellipse cx="220" cy="140" rx="15" ry="10" fill="white" stroke="#4A5568" stroke-width="1" transform="rotate(-30 220 140)"/>
  <ellipse cx="180" cy="180" rx="15" ry="10" fill="white" stroke="#4A5568" stroke-width="1" transform="rotate(-30 180 180)"/>
  <ellipse cx="220" cy="180" rx="15" ry="10" fill="white" stroke="#4A5568" stroke-width="1" transform="rotate(30 220 180)"/>
  
  <!-- Banana Stem -->
  <path d="M190 100 C190 80 210 80 210 100" fill="none" stroke="#8B4513" stroke-width="3"/>
  
  <!-- Cute Face -->
  <circle cx="185" cy="160" r="8" fill="#4A5568"/>
  <circle cx="215" cy="160" r="8" fill="#4A5568"/>
  <path d="M185 190 Q 200 200 215 190" stroke="#4A5568" stroke-width="3" fill="none"/>
  
  <!-- Text -->
  <text x="200" y="300" font-family="Arial" font-size="16" fill="#4A5568" text-anchor="middle" font-weight="bold">Banana Soy Milk</text>
  <text x="200" y="325" font-family="Arial" font-size="14" fill="#4A5568" text-anchor="middle">นมถั่วเหลืองรสกล้วย</text>
</svg>