<svg viewBox="0 0 400 400" xmlns="http://www.w3.org/2000/svg">
  <rect width="100%" height="100%" fill="#FFCCBC" rx="30" ry="30"/>
  
  <!-- Cute Soy Milk Glass -->
  <path d="M160 80 L240 80 L230 250 L170 250 Z" fill="#FFCDD2" stroke="#4A5568" stroke-width="4"/>
  
  <!-- Strawberry -->
  <path d="M180 120 C160 140 160 180 180 200 C200 220 220 220 240 200 C260 180 260 140 240 120 C220 100 200 100 180 120 Z" fill="#EF5350" stroke="#4A5568" stroke-width="2"/>
  
  <!-- Strawberry Seeds -->
  <circle cx="190" cy="130" r="2" fill="#FFEB3B"/>
  <circle cx="210" cy="130" r="2" fill="#FFEB3B"/>
  <circle cx="230" cy="130" r="2" fill="#FFEB3B"/>
  <circle cx="190" cy="150" r="2" fill="#FFEB3B"/>
  <circle cx="210" cy="150" r="2" fill="#FFEB3B"/>
  <circle cx="230" cy="150" r="2" fill="#FFEB3B"/>
  <circle cx="190" cy="170" r="2" fill="#FFEB3B"/>
  <circle cx="210" cy="170" r="2" fill="#FFEB3B"/>
  <circle cx="230" cy="170" r="2" fill="#FFEB3B"/>
  <circle cx="190" cy="190" r="2" fill="#FFEB3B"/>
  <circle cx="210" cy="190" r="2" fill="#FFEB3B"/>
  <circle cx="230" cy="190" r="2" fill="#FFEB3B"/>
  
  <!-- Strawberry Stem and Leaf -->
  <path d="M210 100 L210 120" stroke="#4CAF50" stroke-width="3"/>
  <path d="M210 100 C200 90 190 100 200 110" fill="#4CAF50" stroke="#4CAF50" stroke-width="1"/>
  <path d="M210 100 C220 90 230 100 220 110" fill="#4CAF50" stroke="#4CAF50" stroke-width="1"/>
  
  <!-- Cute Face -->
  <circle cx="195" cy="160" r="8" fill="white"/>
  <circle cx="225" cy="160" r="8" fill="white"/>
  <circle cx="195" cy="160" r="4" fill="#4A5568"/>
  <circle cx="225" cy="160" r="4" fill="#4A5568"/>
  <path d="M200 180 Q 210 190 220 180" stroke="white" stroke-width="3" fill="none"/>
  
  <!-- Text -->
  <text x="200" y="300" font-family="Arial" font-size="16" fill="#4A5568" text-anchor="middle" font-weight="bold">Strawberry Soy Milk</text>
  <text x="200" y="325" font-family="Arial" font-size="14" fill="#4A5568" text-anchor="middle">นมถั่วเหลืองรสสตรอเบอร์รี่</text>
</svg>