<svg viewBox="0 0 400 400" xmlns="http://www.w3.org/2000/svg">
  <rect width="100%" height="100%" fill="#FFF9C4" rx="30" ry="30"/>
  
  <!-- Honey Jar -->
  <path d="M150 120 L250 120 L240 250 L160 250 Z" fill="#FFECB3" stroke="#4A5568" stroke-width="4"/>
  <path d="M160 120 L240 120 L230 100 L170 100 Z" fill="#FFECB3" stroke="#4A5568" stroke-width="4"/>
  <ellipse cx="200" cy="100" rx="30" ry="10" fill="#FFECB3" stroke="#4A5568" stroke-width="2"/>
  
  <!-- Honey Drips -->
  <path d="M180 80 C180 60 190 60 190 80 L190 100" fill="#FFC107" stroke="#4A5568" stroke-width="2"/>
  <path d="M210 80 C210 50 220 50 220 80 L220 100" fill="#FFC107" stroke="#4A5568" stroke-width="2"/>
  
  <!-- Honey Swirls -->
  <path d="M180 150 C200 140 220 160 200 170 C180 180 220 190 200 200" stroke="#FFC107" stroke-width="8" fill="none" stroke-linecap="round"/>
  
  <!-- Bee -->
  <ellipse cx="150" cy="80" rx="15" ry="10" fill="#FFC107" stroke="#4A5568" stroke-width="2"/>
  <ellipse cx="135" cy="80" rx="10" ry="8" fill="black" stroke="#4A5568" stroke-width="1"/>
  <path d="M150 75 L165 70" stroke="black" stroke-width="2"/>
  <path d="M150 85 L165 90" stroke="black" stroke-width="2"/>
  <ellipse cx="140" cy="77" rx="2" ry="2" fill="white"/>
  
  <!-- Cute Face -->
  <circle cx="185" cy="180" r="8" fill="#4A5568"/>
  <circle cx="215" cy="180" r="8" fill="#4A5568"/>
  <path d="M190 210 Q 200 220 210 210" stroke="#4A5568" stroke-width="3" fill="none"/>
  
  <!-- Text -->
  <text x="200" y="300" font-family="Arial" font-size="16" fill="#4A5568" text-anchor="middle" font-weight="bold">Honey Soy Milk</text>
  <text x="200" y="325" font-family="Arial" font-size="14" fill="#4A5568" text-anchor="middle">นมถั่วเหลืองรสน้ำผึ้ง</text>
</svg>