<svg xmlns="http://www.w3.org/2000/svg" width="200" height="200" viewBox="0 0 200 200">
  <!-- Honey Tofu Milk -->
  <rect width="100%" height="100%" fill="#f8f8f8" />
  
  <!-- Cup -->
  <path d="M60,60 L140,60 L130,160 L70,160 Z" fill="#ffffff" stroke="#333333" stroke-width="2" />
  
  <!-- Liquid -->
  <path d="M65,70 L135,70 L127,150 L73,150 Z" fill="#ffd966" />
  
  <!-- Honey drips -->
  <path d="M80,60 L80,80" fill="none" stroke="#e6b422" stroke-width="4" />
  <path d="M100,55 L100,85" fill="none" stroke="#e6b422" stroke-width="4" />
  <path d="M120,60 L120,75" fill="none" stroke="#e6b422" stroke-width="4" />
  
  <!-- Honey swirls -->
  <path d="M75,100 C85,95 95,105 105,100 C115,95 125,105 125,100" fill="none" stroke="#e6b422" stroke-width="3" />
  <path d="M75,120 C85,115 95,125 105,120 C115,115 125,125 125,120" fill="none" stroke="#e6b422" stroke-width="3" />
  <path d="M75,140 C85,135 95,145 105,140 C115,135 125,145 125,140" fill="none" stroke="#e6b422" stroke-width="3" />
  
  <!-- Honey drops -->
  <circle cx="90" cy="90" r="5" fill="#e6b422" />
  <circle cx="110" cy="110" r="5" fill="#e6b422" />
  <circle cx="95" cy="130" r="5" fill="#e6b422" />
  
  <!-- Honeycomb decoration -->
  <path d="M85,85 L95,85 L100,95 L95,105 L85,105 L80,95 Z" fill="none" stroke="#e6b422" stroke-width="1" />
  <path d="M105,105 L115,105 L120,115 L115,125 L105,125 L100,115 Z" fill="none" stroke="#e6b422" stroke-width="1" />
</svg>