<svg viewBox="0 0 800 600" xmlns="http://www.w3.org/2000/svg">
  <rect width="100%" height="100%" fill="#F8D7DA" rx="30" ry="30"/>

  <!-- Cute Soy Milk Cup -->
  <path d="M300 150 L270 400 C270 430 530 430 530 400 L500 150 Z" fill="white" stroke="#4A5568" stroke-width="6"/>
  <path d="M290 150 L510 150 C520 150 520 120 510 120 L290 120 C280 120 280 150 290 150 Z" fill="#F8D7DA" stroke="#4A5568" stroke-width="6"/>

  <!-- Straw -->
  <path d="M450 120 C480 100 500 50 490 30" stroke="#4A5568" stroke-width="8" fill="none" stroke-linecap="round"/>

  <!-- Hearts -->
  <path d="M350 220 C350 200 330 200 330 220 C330 240 350 250 350 250 C350 250 370 240 370 220 C370 200 350 200 350 220 Z" fill="#FF9999"/>
  <path d="M450 220 C450 200 430 200 430 220 C430 240 450 250 450 250 C450 250 470 240 470 220 C470 200 450 200 450 220 Z" fill="#FF9999"/>

  <!-- Cute Face -->
  <circle cx="370" cy="300" r="15" fill="#4A5568"/>
  <circle cx="430" cy="300" r="15" fill="#4A5568"/>
  <path d="M370 350 Q 400 380 430 350" stroke="#4A5568" stroke-width="6" fill="none"/>

  <!-- Text -->
  <text x="50%" y="480" font-family="Arial" font-size="28" fill="#4A5568" text-anchor="middle" font-weight="bold">Sweetened Soy Milk</text>
  <text x="50%" y="520" font-family="Arial" font-size="24" fill="#4A5568" text-anchor="middle">นมถั่วเหลืองรสหวาน</text>
</svg>
