<svg viewBox="0 0 800 600" xmlns="http://www.w3.org/2000/svg">
  <rect width="100%" height="100%" fill="#D1E7DD" rx="30" ry="30"/>

  <!-- Cute Soy Milk Carton -->
  <path d="M300 100 L500 100 L500 350 L400 400 L300 350 Z" fill="white" stroke="#4A5568" stroke-width="6"/>

  <!-- Carton Top -->
  <path d="M300 100 L350 50 L450 50 L500 100" fill="#D1E7DD" stroke="#4A5568" stroke-width="6"/>

  <!-- Leaf Decoration -->
  <path d="M380 180 C350 150 350 200 380 200 C410 200 410 150 380 180 Z" fill="#8BC34A" stroke="#4A5568" stroke-width="2"/>
  <path d="M420 180 C390 150 390 200 420 200 C450 200 450 150 420 180 Z" fill="#8BC34A" stroke="#4A5568" stroke-width="2"/>

  <!-- Cute Face -->
  <circle cx="370" cy="250" r="15" fill="#4A5568"/>
  <circle cx="430" cy="250" r="15" fill="#4A5568"/>
  <path d="M370 300 Q 400 330 430 300" stroke="#4A5568" stroke-width="6" fill="none"/>

  <!-- Text -->
  <text x="50%" y="480" font-family="Arial" font-size="28" fill="#4A5568" text-anchor="middle" font-weight="bold">Unsweetened Soy Milk</text>
  <text x="50%" y="520" font-family="Arial" font-size="24" fill="#4A5568" text-anchor="middle">นมถั่วเหลืองไม่หวาน</text>
</svg>
